<?xml version="1.0" encoding="iso-8859-1"?>
<!-- Generator: Adobe Illustrator 19.0.0, SVG Export Plug-In . SVG Version: 6.00 Build 0)  -->
<svg version="1.1" id="Layer_1" xmlns="http://www.w3.org/2000/svg" xmlns:xlink="http://www.w3.org/1999/xlink" x="0px" y="0px"
	 viewBox="0 0 512 512" style="enable-background:new 0 0 512 512;" xml:space="preserve">
<path style="fill:#FF977B;" d="M319.364,171.198c-10.886-23.345-29.776-42.076-53.19-52.741c-9.119-4.154-18.708-6.994-28.476-8.498
	c5.203-18.045,4.024-37.852-4.355-55.821C214.754,14.273,167.2-3.035,127.336,15.553l-51.64,24.081
	c-39.865,18.588-57.174,66.144-38.584,106.008c8.378,17.967,22.794,31.603,39.962,39.216c-5.126,8.45-9.115,17.621-11.794,27.276
	c-6.88,24.793-4.674,51.302,6.212,74.647c25.228,54.102,89.767,77.592,143.869,52.364l51.64-24.08
	C321.102,289.838,344.592,225.299,319.364,171.198z M247.737,273.754l-51.64,24.08c-31.323,14.605-68.687,1.006-83.292-30.316
	c-12.988-27.853-4.074-60.685,21.196-78.07c9.172-6.309,12.443-18.32,7.738-28.409l-1.275-2.735
	c-4.395-9.424-14.611-14.68-24.834-12.773c-15.316,2.856-30.614-5.02-37.205-19.153c-7.967-17.085-0.549-37.465,16.536-45.432
	l51.64-24.08c17.085-7.967,37.465-0.549,45.432,16.536c6.59,14.133,2.79,30.915-9.243,40.812
	c-8.031,6.606-10.573,17.81-6.178,27.235l1.275,2.735c4.705,10.089,16.009,15.304,26.737,12.333
	c29.56-8.183,60.441,6.093,73.429,33.946C292.658,221.783,279.058,259.149,247.737,273.754z"/>
<path style="fill:#F95948;" d="M256.847,293.292c42.095-19.628,60.373-69.845,40.743-111.942
	c-17.454-37.433-58.973-56.618-98.719-45.61c-0.584,0.161-1.19-0.119-1.447-0.668l-1.275-2.735c-0.238-0.511-0.1-1.117,0.334-1.473
	c19.632-16.146,25.836-43.522,15.087-66.573c-6.286-13.481-17.46-23.714-31.462-28.81c-14.002-5.096-29.139-4.441-42.62,1.846
	l-51.641,24.08l0,0c-27.858,12.991-39.953,46.224-26.962,74.082c10.749,23.051,35.707,35.897,60.693,31.235
	c0.554-0.102,1.107,0.18,1.345,0.69l1.276,2.737c0.255,0.548,0.08,1.194-0.419,1.537c-33.977,23.375-45.97,67.51-28.515,104.942
	c9.497,20.368,26.381,35.826,47.542,43.528c9.421,3.429,19.179,5.135,28.906,5.135c12.122,0,24.192-2.651,35.493-7.92
	L256.847,293.292z M112.804,267.518c-12.988-27.853-4.074-60.685,21.196-78.07c9.172-6.309,12.443-18.32,7.738-28.409l-1.275-2.735
	c-4.395-9.424-14.611-14.68-24.834-12.773c-15.316,2.856-30.614-5.02-37.205-19.153c-7.967-17.085-0.549-37.465,16.536-45.432
	l51.64-24.08c17.085-7.967,37.465-0.549,45.432,16.536c6.59,14.133,2.79,30.916-9.243,40.812
	c-8.031,6.606-10.573,17.81-6.178,27.234l1.275,2.735c4.705,10.089,16.009,15.303,26.737,12.333
	c29.56-8.183,60.441,6.093,73.429,33.946c14.605,31.321,1.006,68.687-30.316,83.292l-51.64,24.08
	C164.774,312.44,127.41,298.84,112.804,267.518z"/>
<path style="fill:#FF977B;" d="M390.074,503.916H251.274c-9.892,0-18.515-6.733-20.914-16.329l-28.255-113.018h237.137
	l-28.255,113.018C408.589,497.183,399.966,503.916,390.074,503.916z"/>
<path style="fill:#FF7A66;" d="M439.242,374.568l-28.255,113.018c-2.399,9.598-11.023,16.329-20.914,16.329h-43.116
	c9.892,0,18.515-6.733,20.914-16.329l28.255-113.018H439.242z"/>
<path style="fill:#FFC4BC;" d="M482.358,336.842L482.358,336.842c0,26.789-21.716,48.505-48.505,48.505H207.494
	c-26.789,0-48.505-21.716-48.505-48.505l0,0c0-26.789,21.716-48.505,48.505-48.505h226.358
	C460.641,288.337,482.358,310.053,482.358,336.842z"/>
<path style="fill:#FFA69F;" d="M482.351,336.013c0.454,27.168-21.434,49.334-48.498,49.334h-10.779h-29.643
	c0-1.104,0.693-2.103,1.741-2.449c19.333-6.383,33.291-24.584,33.291-46.056c0-12.426-4.678-23.755-12.361-32.337
	c-8.882,9.921-21.781,16.168-36.144,16.168H261.389c-26.789,0-48.505-21.716-48.505-48.505l0,0
	c0-26.789,21.716-48.505,48.505-48.505h118.568c26.789,0,48.505,21.716,48.505,48.505l0,0c0,5.671-0.983,11.11-2.771,16.168h7.362
	C459.654,288.337,481.907,309.417,482.351,336.013z"/>
<path style="fill:#FFDBC3;" d="M288.337,309.895v10.779h-26.947c-27.065,0-48.952-22.166-48.499-49.334
	c0.444-26.596,22.697-47.676,49.296-47.676h63.036c26.684,0,49.001,21.197,49.341,47.879c0.003,0.212,0.004,0.424,0.004,0.635
	c-0.001,8.941-7.322,16.16-16.263,16.16h-48.41C297.988,288.337,288.337,297.988,288.337,309.895z"/>
<path style="fill:#AEEF66;" d="M453.254,61.979c0,41.671-33.781,75.453-75.453,75.453h-32.337l0,0
	c0-41.671,33.781-75.453,75.453-75.453H453.254L453.254,61.979z"/>
<path style="fill:#F95948;" d="M369.179,218.274L369.179,218.274c0,26.789-21.716,48.505-48.505,48.505l0,0
	c-26.789,0-48.505-21.716-48.505-48.505l0,0c0-26.789,21.716-48.505,48.505-48.505l0,0
	C347.462,169.768,369.179,191.485,369.179,218.274z"/>
<path style="fill:#FF977B;" d="M342.231,204.114c0,13.016-10.552,23.567-23.567,23.567s-23.567-10.552-23.567-23.567
	c0-13.016,10.552-23.567,23.567-23.567S342.231,191.099,342.231,204.114z"/>
<path d="M184.705,76.818c-1.887-4.046-0.137-8.857,3.91-10.743c4.046-1.887,8.857-0.136,10.743,3.91
	c8.151,17.478,3.448,38.233-11.433,50.472c-5.185,4.264-6.824,11.491-3.987,17.574l1.276,2.734
	c3.047,6.537,10.307,9.883,17.254,7.96c23.068-6.389,47.541-0.791,65.457,14.969c3.352,2.949,3.68,8.057,0.732,11.41
	c-1.597,1.816-3.831,2.744-6.074,2.744c-1.897,0-3.8-0.663-5.336-2.015c-13.807-12.145-32.672-16.454-50.465-11.527
	c-14.585,4.04-29.822-2.987-36.222-16.707l-1.275-2.734c-5.955-12.772-2.514-27.943,8.37-36.896
	C186.837,100.418,189.735,87.607,184.705,76.818z M127.911,332.063c-21.624-9.883-39.059-27.178-49.094-48.697
	c-10.073-21.602-12.114-46.132-5.749-69.069c1.194-4.302-1.325-8.758-5.628-9.951c-4.302-1.194-8.758,1.326-9.951,5.629
	c-7.395,26.644-5.024,55.136,6.674,80.226c11.657,24.999,31.91,45.089,57.025,56.569c1.09,0.498,2.231,0.734,3.355,0.734
	c3.067,0,6-1.754,7.358-4.725C133.759,338.715,131.972,333.92,127.911,332.063z M142.935,288.638
	c-10.049-5.61-17.936-14.095-22.805-24.536c-11.313-24.26-3.554-52.856,18.45-67.993c12.472-8.58,16.882-24.767,10.485-38.484
	l-1.276-2.738c-5.954-12.77-19.788-19.886-33.643-17.303c-11.695,2.181-23.366-3.833-28.396-14.623
	c-2.94-6.306-3.244-13.392-0.857-19.953c2.389-6.561,7.177-11.794,13.483-14.735l51.64-24.08c5.122-2.389,10.754-3.045,16.289-1.898
	c4.371,0.908,8.65-1.902,9.557-6.274s-1.904-8.651-6.274-9.558c-8.971-1.86-18.1-0.795-26.404,3.076l-51.64,24.08
	c-10.22,4.765-17.977,13.239-21.842,23.859s-3.369,22.097,1.396,32.316c8.15,17.478,27.078,27.214,46.013,23.685
	c6.604-1.235,13.189,2.159,16.026,8.241l1.276,2.738c3.047,6.535,0.947,14.244-4.995,18.332
	c-28.535,19.631-38.603,56.702-23.939,88.147c6.313,13.539,16.541,24.543,29.575,31.819c1.247,0.696,2.6,1.027,3.933,1.027
	c2.835,0,5.587-1.494,7.067-4.145C148.229,295.739,146.833,290.814,142.935,288.638z M430.424,409.841
	c-4.331-1.081-8.72,1.55-9.805,5.882l-17.476,69.903c-1.503,6.009-6.877,10.205-13.071,10.205H251.272
	c-6.194,0-11.568-4.197-13.071-10.205l-17.476-69.903c-1.084-4.332-5.474-6.963-9.805-5.882c-4.332,1.082-6.964,5.472-5.882,9.803
	l17.476,69.903C225.821,502.767,237.646,512,251.273,512h138.8c13.627,0,25.452-9.233,28.757-22.454l17.476-69.903
	C437.388,415.314,434.756,410.925,430.424,409.841z M328.758,471.579v-43.116c0-4.465-3.618-8.084-8.084-8.084
	c-4.466,0-8.084,3.62-8.084,8.084v43.116c0,4.465,3.62,8.084,8.084,8.084C325.138,479.663,328.758,476.044,328.758,471.579z
	 M272.927,479.663c0.382,0,0.766-0.027,1.153-0.082c4.42-0.632,7.491-4.727,6.86-9.146l-6.159-43.116
	c-0.632-4.422-4.741-7.494-9.146-6.86c-4.42,0.632-7.491,4.727-6.86,9.146l6.159,43.116
	C265.51,476.754,268.969,479.663,272.927,479.663z M490.442,336.842c0,31.204-25.387,56.589-56.589,56.589h-49.224
	c-4.466,0-8.084-3.62-8.084-8.084s3.618-8.084,8.084-8.084h49.224c22.289,0,40.421-18.132,40.421-40.421
	c0-22.289-18.132-40.421-40.421-40.421h-2.769c-9.097,19.104-28.595,32.337-51.126,32.337c-4.466,0-8.084-3.62-8.084-8.084
	s3.618-8.084,8.084-8.084c22.289,0,40.421-18.132,40.421-40.421c0-22.289-18.132-40.421-40.421-40.421h-4.295
	c-4.92,20.312-20.772,36.574-41.869,41.585c-4.351,1.034-8.701-1.655-9.733-5.996c-1.032-4.344,1.652-8.702,5.996-9.733
	c18.275-4.342,31.038-20.514,31.038-39.329c0-22.289-18.132-40.421-40.421-40.421c-22.289,0-40.421,18.132-40.421,40.421
	c0,15.457,9.009,29.77,22.953,36.464c4.025,1.933,5.721,6.762,3.789,10.786c-1.933,4.025-6.763,5.72-10.786,3.789
	c-15.373-7.38-26.46-21.378-30.473-37.567h-4.344c-22.289,0-40.421,18.132-40.421,40.421s18.132,40.421,40.421,40.421
	c4.466,0,8.084,3.62,8.084,8.084s-3.618,8.084-8.084,8.084c-22.53,0-42.027-13.233-51.126-32.337h-2.77
	c-22.289,0-40.421,18.132-40.421,40.421s18.132,40.421,40.421,40.421h141.024c4.466,0,8.084,3.62,8.084,8.084
	c0,4.465-3.618,8.084-8.084,8.084H207.494c-31.203,0-56.589-25.385-56.589-56.589c0-30.496,24.249-55.434,54.476-56.551
	c-0.383-2.653-0.581-5.366-0.581-8.123c0-31.204,25.387-56.589,56.589-56.589h2.758c1.175-24.954,18.588-45.731,41.886-51.975
	c-10.372-16.468-25.404-29.68-43.211-37.791c-8.377-3.817-17.244-6.463-26.355-7.865c-2.297-0.354-4.331-1.678-5.582-3.637
	c-1.251-1.957-1.6-4.36-0.956-6.593c4.799-16.644,3.409-34.459-3.913-50.164C209.311,21.73,166.578,6.176,130.752,22.88
	l-51.64,24.08c-35.825,16.705-51.379,59.441-34.675,95.264c7.324,15.704,20.078,28.22,35.913,35.243
	c4.082,1.81,5.923,6.586,4.113,10.667c-1.811,4.081-6.587,5.923-10.667,4.112c-19.407-8.606-35.038-23.944-44.012-43.189
	C9.312,105.154,28.374,52.78,72.278,32.308l51.64-24.08c43.9-20.471,96.28-1.411,116.752,42.494
	c7.726,16.568,10.062,35.054,6.81,52.892c7.575,1.753,14.961,4.259,22.045,7.486c23.069,10.509,42.133,28.391,54.144,50.663
	c1.306,0.068,2.605,0.182,3.887,0.337l9.826-25.268c0.151-21.287,8.301-40.705,21.591-55.393c0.075-0.279,0.166-0.557,0.274-0.832
	l5.903-15.177c4.393-11.297,2.988-23.514-3.855-33.519c-6.844-10.005-17.721-15.743-29.843-15.743c-4.466,0-8.084-3.62-8.084-8.084
	S326.987,0,331.452,0c17.284,0,33.43,8.516,43.187,22.782c8.152,11.915,10.948,26.531,7.999,40.409
	c11.474-5.939,24.492-9.297,38.279-9.297h32.337c4.466,0,8.084,3.62,8.084,8.084c0,46.063-37.475,83.537-83.537,83.537h-26.447
	l-8.113,20.864c19.225,8.394,32.921,27.168,33.959,49.199h2.758c31.203,0,56.589,25.385,56.589,56.589
	c0,2.758-0.198,5.47-0.581,8.123C466.192,281.408,490.442,306.346,490.442,336.842z M354.031,129.347h23.771
	c34.413,0,62.881-25.933,66.887-59.284h-23.771C386.505,70.063,358.036,95.996,354.031,129.347z M338.998,229.457v-1.078
	c0-4.465-3.618-8.084-8.084-8.084s-8.084,3.62-8.084,8.084v1.078c0,4.465,3.618,8.084,8.084,8.084S338.998,233.921,338.998,229.457z
	 M368.42,479.663c3.958,0,7.417-2.91,7.993-6.942l6.159-43.116c0.632-4.42-2.44-8.514-6.86-9.146
	c-4.402-0.628-8.514,2.44-9.146,6.86l-6.159,43.116c-0.632,4.42,2.44,8.514,6.86,9.146
	C367.655,479.637,368.038,479.663,368.42,479.663z"/>
<g>
</g>
<g>
</g>
<g>
</g>
<g>
</g>
<g>
</g>
<g>
</g>
<g>
</g>
<g>
</g>
<g>
</g>
<g>
</g>
<g>
</g>
<g>
</g>
<g>
</g>
<g>
</g>
<g>
</g>
</svg>
